# xmcd
# 
# Track frame offsets:
#     150
#     24120
#     46275
#     64995
#     102345
#     123349
#     140014
#     164032
#     182097
#     203000
#     223355
# 
# Disc length: 3332
# 
# Revision: 0
# Processed by: cddbd v1.5.2PL0 Copyright (c) Steve Scherf et al.
# Submitted via: fre:ac v1.0.31
# 
DISCID=a60d020b
DTITLE=Various Artist - Sean Carney's Blues For A Cure Blues Cures Studio Jam, Vol. 2
DYEAR=2010
DGENRE=Blues
TTITLE0=JP Soars, TUF, R Nye, G Walker - The Hustle (Is On)
TTITLE1=TUF, D Hudspeth, J Thackery, J Richardson - Voodoo Woman
TTITLE2=Henry Gray, S Carney, J Richardson - Goin' Downtown
TTITLE3=Matt O'Ree Band, J Thackery, R Nye, M Kesselring - No Whiskey Blues
TTITLE4=Sean Carney, Matt O'Ree Band, J Thackery, R Nye - I Need You So Bad
TTITLE5=Ricky Nye, TUF, J Richardson - Central City Blues
TTITLE6=Matt O'Ree Band, JP Soars, N Schnebelen - Chloe's Song
TTITLE7=Henry Gray, S Carney, J Richardson - Blues Won't Let Me Take My Rest
TTITLE8=TUF, J Thackery, M Kesselring - Maggie Campbell Blues
TTITLE9=Henry Gray and Ricky Nye - Jump On Board
TTITLE10=TUF, S Carney, JP Soars, J Richardson - IBCn You
EXTD=
EXTT0=
EXTT1=
EXTT2=
EXTT3=
EXTT4=
EXTT5=
EXTT6=
EXTT7=
EXTT8=
EXTT9=
EXTT10=
PLAYORDER=
